<?xml version="1.0" standalone="no"?>
<!DOCTYPE svg PUBLIC "-//W3C//DTD SVG 20010904//EN"
 "http://www.w3.org/TR/2001/REC-SVG-20010904/DTD/svg10.dtd">
<svg version="1.0" xmlns="http://www.w3.org/2000/svg"
 width="96.000000pt" height="96.000000pt" viewBox="0 0 96.000000 96.000000"
 preserveAspectRatio="xMidYMid meet">
<metadata>
Created by potrace 1.14, written by Peter Selinger 2001-2017
</metadata>
<g transform="translate(0.000000,96.000000) scale(0.100000,-0.100000)"
fill="#000000" stroke="none">
<path d="M323 845 c-12 -9 -30 -40 -39 -70 -17 -53 -19 -55 -52 -55 -49 0
-111 -38 -133 -82 -14 -27 -19 -58 -19 -118 l0 -81 60 -27 59 -27 1 -107 c0
-60 -4 -108 -9 -108 -22 0 -51 54 -51 95 0 36 -4 44 -22 48 -31 9 -40 -9 -34
-70 6 -66 26 -95 84 -123 26 -12 64 -31 84 -41 33 -17 63 -19 309 -19 266 0
274 1 305 22 18 13 38 33 43 46 7 13 11 97 11 199 0 150 -3 182 -19 217 -10
23 -28 62 -39 88 -24 53 -77 88 -135 88 -32 0 -34 3 -51 55 -25 80 -36 85
-196 85 -105 0 -140 -3 -157 -15z m291 -69 c3 -13 9 -31 12 -40 5 -14 -11 -16
-146 -16 -135 0 -151 2 -146 16 3 9 9 27 12 40 6 24 7 24 134 24 127 0 128 0
134 -24z m170 -137 c14 -11 26 -25 26 -30 0 -5 -107 -9 -261 -9 -245 0 -264
-1 -294 -20 -33 -21 -55 -63 -55 -106 0 -28 -1 -28 -35 -12 -23 10 -25 16 -25
75 0 58 3 68 29 94 l29 29 280 0 c267 0 280 -1 306 -21z"/>
</g>
</svg>
